<svg version="1.1" id="Layer_1" xmlns="http://www.w3.org/2000/svg" xmlns:xlink="http://www.w3.org/1999/xlink" x="0px" y="0px"
	 width="100%" viewBox="0 0 444 444" enable-background="new 0 0 444 444" xml:space="preserve">
<path fill="#000103" opacity="1.000000" stroke="none" 
	d="
M202.000000,445.000000 
	C134.685471,445.000000 67.870941,445.000000 1.028204,445.000000 
	C1.028204,297.060455 1.028204,149.120880 1.028204,1.090660 
	C148.897873,1.090660 296.795807,1.090660 444.846863,1.090660 
	C444.846863,148.999878 444.846863,296.999908 444.846863,445.000000 
	C364.120850,445.000000 283.310425,445.000000 202.000000,445.000000 
M378.498138,340.060272 
	C328.970062,253.955673 279.441986,167.851074 229.526215,81.072472 
	C227.794891,83.793839 226.485779,85.691063 225.337341,87.681007 
	C210.019623,114.222534 194.809189,140.826599 179.345551,167.282715 
	C176.555237,172.056580 176.609680,175.969223 179.375443,180.712845 
	C196.068863,209.344131 212.658295,238.037674 229.046692,266.844543 
	C239.838226,285.813446 252.197128,303.444794 269.478394,317.139526 
	C301.941650,342.865479 339.619415,349.285950 379.683716,346.742462 
	C380.234375,346.707489 380.752136,346.154755 381.599854,345.660095 
	C380.623230,343.881104 379.754852,342.299316 378.498138,340.060272 
M96.387810,311.847137 
	C89.896332,323.157898 83.404846,334.468658 76.670181,346.203125 
	C78.361763,346.565125 79.148354,346.885590 79.932182,346.878967 
	C98.753342,346.720062 117.676254,347.714569 136.375412,346.108917 
	C186.399246,341.813568 216.532440,291.280365 196.276016,245.393280 
	C187.975204,226.589417 176.984680,208.972885 166.657089,189.774002 
	C142.905991,231.033234 119.828308,271.122620 96.387810,311.847137 
z"/>
<path fill="#E6E6E6" opacity="1.000000" stroke="none" 
	d="
M378.692322,340.388916 
	C379.754852,342.299316 380.623230,343.881104 381.599854,345.660095 
	C380.752136,346.154755 380.234375,346.707489 379.683716,346.742462 
	C339.619415,349.285950 301.941650,342.865479 269.478394,317.139526 
	C252.197128,303.444794 239.838226,285.813446 229.046692,266.844543 
	C212.658295,238.037674 196.068863,209.344131 179.375443,180.712845 
	C176.609680,175.969223 176.555237,172.056580 179.345551,167.282715 
	C194.809189,140.826599 210.019623,114.222534 225.337341,87.681007 
	C226.485779,85.691063 227.794891,83.793839 229.526215,81.072472 
	C279.441986,167.851074 328.970062,253.955673 378.692322,340.388916 
z"/>
<path fill="#E6E6E6" opacity="1.000000" stroke="none" 
	d="
M96.569214,311.529602 
	C119.828308,271.122620 142.905991,231.033234 166.657089,189.774002 
	C176.984680,208.972885 187.975204,226.589417 196.276016,245.393280 
	C216.532440,291.280365 186.399246,341.813568 136.375412,346.108917 
	C117.676254,347.714569 98.753342,346.720062 79.932182,346.878967 
	C79.148354,346.885590 78.361763,346.565125 76.670181,346.203125 
	C83.404846,334.468658 89.896332,323.157898 96.569214,311.529602 
z"/>
</svg>