<?xml version="1.0" encoding="UTF-8"?>
<svg version="1.1" xmlns="http://www.w3.org/2000/svg" width="444" height="444">
<path d="M0 0 C146.52 0 293.04 0 444 0 C444 146.52 444 293.04 444 444 C297.48 444 150.96 444 0 444 C0 297.48 0 150.96 0 0 Z " fill="#FEFDFB" transform="translate(0,0)"/>
<path d="M0 0 C4.56954086 1.46512185 6.03346526 5.07604233 8.125 9.0625 C8.92280943 10.53215765 9.72234435 12.00087968 10.5234375 13.46875 C10.93303711 14.22414063 11.34263672 14.97953125 11.76464844 15.7578125 C13.68257348 19.23888435 15.71564321 22.64861171 17.75 26.0625 C24.87736046 38.0900095 31.74504464 50.27501732 38.4921875 62.51953125 C41.33015938 67.63617913 44.32097501 72.6595861 47.3125 77.6875 C51.09114121 84.05596048 54.85057848 90.43150421 58.5 96.875 C60.8472464 101.01719953 63.27806962 105.07123788 65.84082031 109.08227539 C66.95401604 110.92392503 67.9090928 112.77752258 68.84375 114.71484375 C70.95875162 118.99009819 73.31287756 123.08926616 75.75 127.1875 C76.40307129 128.29387817 76.40307129 128.29387817 77.06933594 129.42260742 C79.73635555 133.92527293 82.47166155 138.3778444 85.25 142.8125 C88.34682435 147.79975529 91.0086758 152.89166344 93.57421875 158.16796875 C95.35805907 161.71121323 97.36909967 165.0728431 99.44140625 168.453125 C105.6397337 178.58172023 111.42709488 188.96521852 117.30029297 199.28466797 C123.16930303 209.59531502 129.07955332 219.87998156 135.0625 230.125 C135.64483398 231.12418457 136.22716797 232.12336914 136.82714844 233.15283203 C139.64286123 237.98078004 142.47188823 242.79978804 145.33203125 247.6015625 C145.84693115 248.47280762 146.36183105 249.34405273 146.89233398 250.24169922 C147.85479461 251.86994233 148.82398446 253.49423345 149.80102539 255.11376953 C150.22504639 255.83419434 150.64906738 256.55461914 151.0859375 257.296875 C151.4576709 257.91916992 151.8294043 258.54146484 152.21240234 259.18261719 C153 261 153 261 153 265 C109.09249532 265.83085526 109.09249532 265.83085526 93 261 C91.56253922 260.59881777 90.12503893 260.1977771 88.6875 259.796875 C40.91204209 246.00681539 15.29120306 210.81364958 -7.99021912 169.3419342 C-11.52402363 163.0516155 -15.13480516 156.80633573 -18.75 150.5625 C-22.82544496 143.51449015 -26.88365847 136.45753619 -30.90698242 129.37963867 C-34.66063587 122.77706465 -38.43673093 116.206465 -42.4375 109.75 C-43.05496094 108.75226563 -43.67242187 107.75453125 -44.30859375 106.7265625 C-45.39952176 104.96797647 -46.49551002 103.21251463 -47.59765625 101.4609375 C-48.29181641 100.30464844 -48.29181641 100.30464844 -49 99.125 C-49.5878125 98.16980469 -49.5878125 98.16980469 -50.1875 97.1953125 C-51.81276096 92.8039824 -51.5149687 89.16273736 -49.63671875 84.921875 C-48.67185547 83.35179687 -48.67185547 83.35179687 -47.6875 81.75 C-46.95003474 80.52503209 -46.2130842 79.29975421 -45.4765625 78.07421875 C-45.07727539 77.42114746 -44.67798828 76.76807617 -44.26660156 76.09521484 C-42.44931047 73.08904828 -40.70706684 70.04126081 -38.95874023 66.99462891 C-34.42693568 59.10062 -29.79555283 51.27176568 -25.0703125 43.4921875 C-23.06576142 40.15368649 -21.18493471 36.75161986 -19.30322266 33.34277344 C-17.12626012 29.42929788 -14.87446646 25.55961083 -12.625 21.6875 C-12.14893311 20.86660889 -11.67286621 20.04571777 -11.18237305 19.19995117 C-7.46558151 12.79374834 -3.73898312 6.3932783 0 0 Z " fill="#191918" transform="translate(227,81)"/>
<path d="M0 0 C3.78951368 1.26317123 3.92837956 2.26200188 5.6875 5.75 C7.82853127 9.84929158 10.08009504 13.78582976 12.5625 17.6875 C21.19658242 31.60537417 30.16172182 46.27007276 35 62 C35.31324219 62.9384375 35.62648438 63.876875 35.94921875 64.84375 C41.58857247 83.82872363 37.18509341 102.53088805 28.00390625 119.50390625 C25.66777812 123.65226354 23.19019282 127.4536206 20 131 C19.01773438 132.10214844 19.01773438 132.10214844 18.015625 133.2265625 C5.66704963 146.31955553 -12.04286608 154.56134412 -30 156 C-34.49014671 156.13094492 -38.9770244 156.11654438 -43.46875 156.09765625 C-44.74480103 156.0962413 -46.02085205 156.09482635 -47.33557129 156.09336853 C-50.70238156 156.08874011 -54.06912207 156.07977971 -57.43591309 156.06866455 C-60.88174848 156.0583733 -64.32759112 156.0538545 -67.7734375 156.04882812 C-74.51564403 156.03783326 -81.25781799 156.0211208 -88 156 C-86.72869259 151.86511352 -85.18109061 148.23869548 -83.05859375 144.47265625 C-82.47980469 143.44132568 -81.90101562 142.40999512 -81.3046875 141.34741211 C-80.68851562 140.26339111 -80.07234375 139.17937012 -79.4375 138.0625 C-78.48423828 136.37362671 -78.48423828 136.37362671 -77.51171875 134.65063477 C-73.9159459 128.30276188 -70.27043305 121.99152765 -66.47875977 115.75878906 C-61.09407124 106.90325452 -55.92912473 97.91600428 -50.72167969 88.95556641 C-49.55964494 86.96072911 -48.39352838 84.96826475 -47.22363281 82.97802734 C-43.90606257 77.32759126 -40.69009035 71.63879034 -37.57226562 65.87597656 C-34.54165962 60.33241464 -31.38922012 54.85753189 -28.25 49.375 C-27.89895203 48.76094299 -27.54790405 48.14688599 -27.18621826 47.51422119 C-22.67107615 39.6168868 -18.11041779 31.74901035 -13.46826172 23.92553711 C-8.81141725 16.04480009 -4.40923154 8.02104887 0 0 Z " fill="#191919" transform="translate(164,190)"/>
<path d="M0 0 C0.66 0.33 1.32 0.66 2 1 C2 2.32 2 3.64 2 5 C-3.51349605 5.04980921 -9.02685821 5.08591163 -14.54052734 5.10986328 C-16.41229538 5.11985894 -18.28404805 5.13345997 -20.15576172 5.15087891 C-22.86169246 5.17541268 -25.56741499 5.18654768 -28.2734375 5.1953125 C-29.09677582 5.20563507 -29.92011414 5.21595764 -30.7684021 5.22659302 C-36.71310322 5.22771544 -42.21587782 4.34964445 -48 3 C-48 2.67 -48 2.34 -48 2 C-40.66855944 1.87359585 -40.66855944 1.87359585 -37.35546875 2.5 C-33.54164192 3.06830016 -29.82074985 3.12549379 -25.9765625 3.09765625 C-25.23038666 3.0962413 -24.48421082 3.09482635 -23.71542358 3.09336853 C-21.35190682 3.08780874 -18.98848773 3.07526389 -16.625 3.0625 C-15.01432429 3.0574798 -13.40364709 3.0529178 -11.79296875 3.04882812 C-7.86194201 3.03785251 -3.93098752 3.02061596 0 3 C0 2.01 0 1.02 0 0 Z " fill="#4F4E4E" transform="translate(378,341)"/>
<path d="M0 0 C2.74277578 3.19990508 4.6302836 6.00499382 6 10 C5.01 9.67 4.02 9.34 3 9 C2.67 8.34 2.34 7.68 2 7 C1.01 6.67 0.02 6.34 -1 6 C-0.67 4.02 -0.34 2.04 0 0 Z " fill="#343432" transform="translate(370,327)"/>
<path d="M0 0 C-0.75 4.75 -0.75 4.75 -3 7 C-3.99 5.02 -4.98 3.04 -6 1 C-4 0 -4 0 0 0 Z " fill="#20201F" transform="translate(212,226)"/>
<path d="M0 0 C0.66 0.66 1.32 1.32 2 2 C1.47599609 2.70576172 1.47599609 2.70576172 0.94140625 3.42578125 C0.48636719 4.04839844 0.03132812 4.67101562 -0.4375 5.3125 C-0.88996094 5.92738281 -1.34242188 6.54226562 -1.80859375 7.17578125 C-3.17336308 9.09677101 -3.17336308 9.09677101 -4 12 C-4.66 12 -5.32 12 -6 12 C-4.43358249 7.69235185 -2.31663844 3.93828536 0 0 Z " fill="#454543" transform="translate(142,229)"/>
<path d="M0 0 C0.75 1.625 0.75 1.625 1 4 C-0.8125 7.25 -0.8125 7.25 -3 10 C-3.66 10 -4.32 10 -5 10 C-3.66511872 6.40608886 -2.03977277 3.24509304 0 0 Z " fill="#3F3E3D" transform="translate(122,264)"/>
<path d="M0 0 C1 3 1 3 0.22265625 5.04296875 C-0.16019531 5.75066406 -0.54304687 6.45835937 -0.9375 7.1875 C-1.31777344 7.90292969 -1.69804687 8.61835938 -2.08984375 9.35546875 C-2.54037109 10.16951172 -2.54037109 10.16951172 -3 11 C-3.66 10.67 -4.32 10.34 -5 10 C-3.66511872 6.40608886 -2.03977277 3.24509304 0 0 Z " fill="#464646" transform="translate(192,142)"/>
<path d="M0 0 C0.66 0.33 1.32 0.66 2 1 C1.67 1.99 1.34 2.98 1 4 C0.34 4 -0.32 4 -1 4 C-1.103125 4.61875 -1.20625 5.2375 -1.3125 5.875 C-2 8 -2 8 -5 10 C-3.66511872 6.40608886 -2.03977277 3.24509304 0 0 Z " fill="#4B4A49" transform="translate(93,314)"/>
<path d="M0 0 C1.32 0.66 2.64 1.32 4 2 C3.67 2.66 3.34 3.32 3 4 C2.01 4.33 1.02 4.66 0 5 C-0.33 5.66 -0.66 6.32 -1 7 C-1.66 7 -2.32 7 -3 7 C-1.125 2.25 -1.125 2.25 0 0 Z " fill="#434343" transform="translate(227,81)"/>
<path d="M0 0 C0.66 0.33 1.32 0.66 2 1 C2 2.32 2 3.64 2 5 C-1.3 5 -4.6 5 -8 5 C-8 4.67 -8 4.34 -8 4 C-5.36 3.67 -2.72 3.34 0 3 C0 2.01 0 1.02 0 0 Z " fill="#41413F" transform="translate(378,341)"/>
<path d="M0 0 C0.99 1.32 1.98 2.64 3 4 C-0.75 7 -0.75 7 -3 7 C-1.125 2.25 -1.125 2.25 0 0 Z " fill="#3C3B3A" transform="translate(147,220)"/>
</svg>
